<?xml version="1.0" encoding="utf-8"?>
<?xml-stylesheet type="text/xsl" href="rss1.xsl"?>
<rss version="2.0" xmlns:atom="http://www.w3.org/2005/Atom" xmlns:content="http://purl.org/rss/1.0/modules/content/" xmlns:dc="http://purl.org/dc/elements/1.1/" xmlns:media="http://search.yahoo.com/mrss/">
<channel>
 <title>Getty</title>
 <link>http://www.gettyimg.com/</link>
 <atom:link href="http://www.gettyimg.com/" rel="self" type="application/rss+xml" />

 
                <item>
                <title><![CDATA[【YOUTUBE】WEB-RiP - S Club - Never Had A Dream Come True [AAC LC YOUTUBE REMASTERED 'UHD (4K)' 2160p]]]></title>
                <link><![CDATA[https://sharemania.us/threads/s-club-never-had-a-dream-come-true-aac-lc-youtube-remastered-uhd-4k-2160p.232431/]]></link>
                <description><![CDATA[<article>
<blockquote class="messageText SelectQuoteContainer ugc baseHtml">
<div style="text-align: center"><img src="https://i.imgur.com/biAmB88.jpg" class="bbCodeImage LbImage" alt="[​IMG]" data-url="https://i.imgur.com/biAmB88.jpg" style=""><br>
<br>
<img src="https://i.imgur.com/Rz51BDVl.png" class="bbCodeImage LbImage" alt="[​IMG]" data-url="https://i.imgur.com/Rz51BDVl.png" style=""><br>
<b><br>
Title:</b> <b><span style="color: rgb(255, 119, 0)">S CLUB 7 - NEVER HAD A DREAM COME TRUE</span><br>
Year:</b> <b><span style="color: rgb(255, 119, 0)">2001</span><br>
Updated: <span style="color: #ff0000">18.11.2023</span></b><br>
<div class="bbCodeBlock bbCodeVfcHH HiddenContent">
<div class="attribution type">Hidden Content:</div>
<blockquote>You must reply before you can see the hidden data contained here.</blockquote>
</div><b><b><b><span style="color: rgb(255, 119, 0)"><span style="color: #000000">Sources:</span><span style="color: #ff7700"> AUDIO (<img src="https://i.imgur.com/aHYyTP9.png" class="bbCodeImage LbImage" alt="[​IMG]" data-url="https://i.imgur.com/aHYyTP9.png" style=""> <img src="https://i.imgur.com/xgIe9OW.png" class="bbCodeImage LbImage" alt="[​IMG]" data-url="https://i.imgur.com/xgIe9OW.png" style="">) + VIDEO (<img src="https://i.imgur.com/61QOhWS.png" class="bbCodeImage LbImage" alt="[​IMG]" data-url="https://i.imgur.com/61QOhWS.png" style=""> <img src="https://i.imgur.com/wBgtrI5.png" class="bbCodeImage LbImage" alt="[​IMG]" data-url="https://i.imgur.com/wBgtrI5.png" style="">)</span></span></b></b></b><br>
<div class="bbCodeBlock bbCodeQuote">
<aside>
<blockquote class="quoteContainer"><div class="quote"><b><span style="text-decoration: underline"><b>INFO</b></span><br>
<br>
General</b><br>
<br>
Format : Matroska<br>
File size : 334 MiB<br>
Duration : 3 min 57 s<br>
Overall bit rate : 11.8 Mb/s<br>
<br>
<b>Video</b><br>
<br>
Format : VP9<br>
Bit rate : 11.5 Mb/s<br>
Width : 3 840 pixels<br>
Height : 2 160 pixels<br>
Display aspect ratio : 16:9<br>
Frame rate mode : Constant<br>
Frame rate : 25.000 FPS<br>
<br>
<b>Audio</b><br>
<br>
Format : AAC LC<br>
Muxing mode : ADTS<br>
Maximum bit rate : 320 kb/s<br>
Channel(s) : 2 channels<br>
Sampling rate : 48.0 kHz</div><div class="quoteExpand quoteCut">Click to expand...</div></blockquote>
</aside>
</div>
<div class="bbCodeBlock bbCodeVfcHH HiddenContent">
<div class="attribution type">Hidden Content:</div>
<blockquote>You must either reply or click 'Like' to see the hidden information contained here.</blockquote>
</div></div>
<div class="messageTextEndMarker">&nbsp;</div>
</blockquote>
</article>]]></description>
                <author><![CDATA[Dave]]></author>
                </item>

                
                <item>
                <title><![CDATA[【HD Live Performances】PACK - Michael Buble's Christmas Specials 2011-2021 HDTV 1080i]]></title>
                <link><![CDATA[https://sharemania.us/threads/michael-bubles-christmas-specials-2011-2021-hdtv-1080i.232433/]]></link>
                <description><![CDATA[<article>
<blockquote class="messageText SelectQuoteContainer ugc baseHtml">
<div style="text-align: center"><b><span style="font-family: 'Times New Roman'"><span style="font-size: 18px">A Michael Bublé Christmas 2011 1080i HDTV DD5.1 MPEG2-TrollHD</span></span></b><br>
<span style="font-family: 'Times New Roman'"><img src="https://i.imgur.com/aoQdbuM.jpg" class="bbCodeImage LbImage" alt="[​IMG]" data-url="https://i.imgur.com/aoQdbuM.jpg" style=""> <br>
<div class="bbCodeBlock bbCodeVfcHH HiddenContent">
<div class="attribution type">Hidden Content:</div>
<blockquote>You must either reply or click 'Like' to see the hidden information contained here.</blockquote>
</div><span style="font-size: 18px"><b>Michael Buble - Home for the Holidays 2012 1080i HDTV DD5.1 MPEG2-TrollHD</b></span><br>
<img src="https://i.imgur.com/x4OLmXp.jpg" class="bbCodeImage LbImage" alt="[​IMG]" data-url="https://i.imgur.com/x4OLmXp.jpg" style=""> <br>
<div class="bbCodeBlock bbCodeVfcHH HiddenContent">
<div class="attribution type">Hidden Content:</div>
<blockquote>You must either reply or click 'Like' to see the hidden information contained here.</blockquote>
</div><span style="font-size: 18px"><b>Michael Buble's 3rd Annual Christmas Special 2013-12-18 1080i HDTV DD5.1 MPEG2-TrollHD</b></span><br>
<img src="https://i.imgur.com/7OlxvcP.jpg" class="bbCodeImage LbImage" alt="[​IMG]" data-url="https://i.imgur.com/7OlxvcP.jpg" style=""><br>
<div class="bbCodeBlock bbCodeVfcHH HiddenContent">
<div class="attribution type">Hidden Content:</div>
<blockquote>You must either reply or click 'Like' to see the hidden information contained here.</blockquote>
</div><span style="font-size: 18px"><b>Michael Bublé's Christmas in New York 2014 HDTV 1080i-HDMania</b></span><br>
<img src="https://i.imgur.com/EY6rfgR.jpg" class="bbCodeImage LbImage" alt="[​IMG]" data-url="https://i.imgur.com/EY6rfgR.jpg" style=""> <br>
<div class="bbCodeBlock bbCodeVfcHH HiddenContent">
<div class="attribution type">Hidden Content:</div>
<blockquote>You must either reply or click 'Like' to see the hidden information contained here.</blockquote>
</div><span style="font-size: 18px"><b>Michael Buble's Christmas in Hollywood 2015-12-10 1080i HDTV DD5.1 MPEG2-TrollHD</b><br>
<b><img src="https://i.imgur.com/oigdjkw.jpg" class="bbCodeImage LbImage" alt="[​IMG]" data-url="https://i.imgur.com/oigdjkw.jpg" style=""> </b></span><br>
<span style="font-size: 15px">
<div class="bbCodeBlock bbCodeVfcHH HiddenContent">
<div class="attribution type">Hidden Content:</div>
<blockquote>You must either reply or click 'Like' to see the hidden information contained here.</blockquote>
</div><br>
</span><br>
<span style="font-size: 18px"><b>Michael Buble Sings and Swings 2016 1080i h264 24mbps DTSHDMA 5.1-ALANiS</b><br>
<b><img src="https://i.imgur.com/PBsQCla.jpg" class="bbCodeImage LbImage" alt="[​IMG]" data-url="https://i.imgur.com/PBsQCla.jpg" style=""> </b></span><br>
<span style="font-size: 15px">
<div class="bbCodeBlock bbCodeVfcHH HiddenContent">
<div class="attribution type">Hidden Content:</div>
<blockquote>You must either reply or click 'Like' to see the hidden information contained here.</blockquote>
</div><br>
</span><br>
<span style="font-size: 18px"><b>Michael Buble's Christmas in the City HDTV MPEG2 1080i DD5.1-ilya2129</b><br>
<b><img src="https://i.imgur.com/gADLwdE.jpg" class="bbCodeImage LbImage" alt="[​IMG]" data-url="https://i.imgur.com/gADLwdE.jpg" style=""> </b><br>
<span style="font-family: 'Times New Roman'"><span style="font-size: 15px">
<div class="bbCodeBlock bbCodeVfcHH HiddenContent">
<div class="attribution type">Hidden Content:</div>
<blockquote>You must either reply or click 'Like' to see the hidden information contained here.</blockquote>
</div></span></span></span><br>
<br>
<span style="font-size: 18px"><span style="font-family: 'Times New Roman'"><span style="font-size: 15px">Credits to cappers: TrollHD, Alanis, ilya2129</span></span></span><br>
<span style="font-size: 18px"><br>
</span></span>​</div>
<div class="messageTextEndMarker">&nbsp;</div>
</blockquote>
</article>]]></description>
                <author><![CDATA[mariellisaa]]></author>
                </item>

                
                <item>
                <title><![CDATA[【Instrumentals / Karaoke (lossless)】FLAC - Taylor Swift - Speak Now (Taylor's Version) [Instrumental] [24-Bit/48.0 kHz]]]></title>
                <link><![CDATA[https://sharemania.us/threads/taylor-swift-speak-now-taylors-version-instrumental-24-bit-48-0-khz.232430/]]></link>
                <description><![CDATA[<article>
<blockquote class="messageText SelectQuoteContainer ugc baseHtml">
<div style="text-align: center"><img src="https://i.imgur.com/9K9WRkv.png" class="bbCodeImage LbImage" alt="[​IMG]" data-url="https://i.imgur.com/9K9WRkv.png" style="">​</div>Download:<br>
<div class="bbCodeBlock bbCodeVfcHH HiddenContent">
<div class="attribution type">Hidden Content:</div>
<blockquote>You must reply before you can see the hidden data contained here.</blockquote>
</div>
<div class="messageTextEndMarker">&nbsp;</div>
</blockquote>
</article>]]></description>
                <author><![CDATA[AestheticJunky]]></author>
                </item>

                
                <item>
                <title><![CDATA[【Cinema Center】MOVIE - See.You.on.Venus.2023.1080p.NF.WEB-DL.DDP5.1.x264-Samuel]]></title>
                <link><![CDATA[https://sharemania.us/threads/see-you-on-venus-2023-1080p-nf-web-dl-ddp5-1-x264-samuel.232434/]]></link>
                <description><![CDATA[<article>
<blockquote class="messageText SelectQuoteContainer ugc baseHtml">
MP3 Format<br>
<a href="https://sharemania.us/threads/taylor-swift-speak-now-taylors-version-instrumental-320-kbps.232429/" class="internalLink">https://sharemania.us/threads/taylor-swift-speak-now-taylors-version-instrumental-320-kbps.232429/</a>
<div class="messageTextEndMarker">&nbsp;</div>
</blockquote>
</article>]]></description>
                <author><![CDATA[Samuel]]></author>
                </item>

                
                <item>
                <title><![CDATA[【Instrumentals / Karaoke (lossy)】MP3 - Taylor Swift - Speak Now (Taylor's Version) [Instrumental] [320 kbps]]]></title>
                <link><![CDATA[https://sharemania.us/threads/taylor-swift-speak-now-taylors-version-instrumental-320-kbps.232429/]]></link>
                <description><![CDATA[<article>
<blockquote class="messageText SelectQuoteContainer ugc baseHtml">
thanks
<div class="messageTextEndMarker">&nbsp;</div>
</blockquote>
</article>]]></description>
                <author><![CDATA[AestheticJunky]]></author>
                </item>

                
                <item>
                <title><![CDATA[【Actresses】Chyler Leigh - Not Another Teen Movie (2001) 720p]]></title>
                <link><![CDATA[https://sharemania.us/threads/chyler-leigh-not-another-teen-movie-2001-720p.232432/]]></link>
                <description><![CDATA[<article>
<blockquote class="messageText SelectQuoteContainer ugc baseHtml">
<div style="text-align: center"><b><span style="font-size: 26px">See You on Venus</span></b><br>
<img src="https://i.imgur.com/vHijJfr.jpg" class="bbCodeImage LbImage" alt="[​IMG]" data-url="https://i.imgur.com/vHijJfr.jpg" style=""><br>
<a href="https://i.imgur.com/7zM4lcl.jpg" target="_blank" class="externalLink" rel="nofollow"><b>Alternate Artwork 1</b></a> | <a href="https://i.imgur.com/QPXEtyY.jpg" target="_blank" class="externalLink" rel="nofollow"><b>Alternate Artwork 2</b></a> | <a href="https://i.imgur.com/YgtlD58.png" target="_blank" class="externalLink" rel="nofollow"><b>Alternate Artwork 3</b></a> | <a href="https://i.imgur.com/M710FyB.jpg" target="_blank" class="externalLink" rel="nofollow"><b>Alternate Artwork 4</b></a> | <a href="https://i.imgur.com/qRzHp63.jpg" target="_blank" class="externalLink" rel="nofollow"><b>Alternate Artwork 5</b></a> | <a href="https://i.imgur.com/bkThBfV.jpg" target="_blank" class="externalLink" rel="nofollow"><b>Alternate Artwork 6</b></a> | <a href="https://i.imgur.com/CHSwWOu.jpg" target="_blank" class="externalLink" rel="nofollow"><b>Alternate Artwork 7</b></a> | <a href="https://i.imgur.com/wUZLSMT.jpg" target="_blank" class="externalLink" rel="nofollow"><b>Preview Frame</b></a> | <a href="https://i.imgur.com/yBsFaEb.jpg" target="_blank" class="externalLink" rel="nofollow"><b>Poster 1</b></a> | <a href="https://i.imgur.com/6euFVGv.jpg" target="_blank" class="externalLink" rel="nofollow"><b>Poster 2</b></a> | <a href="https://i.imgur.com/94RjjdL.jpg" target="_blank" class="externalLink" rel="nofollow"><b>Key Art</b></a><br>
<br>
2023 • 1h 35m • HD • <img src="https://i.imgur.com/rKfZNUo.png" class="bbCodeImage LbImage" alt="[​IMG]" data-url="https://i.imgur.com/rKfZNUo.png" style=""> • <img src="https://i.imgur.com/he9ZqFh.png" class="bbCodeImage LbImage" alt="[​IMG]" data-url="https://i.imgur.com/he9ZqFh.png" style=""> • TV-PG<br>
<br>
<div class="bbCodeBlock bbCodeQuote">
<aside>
<blockquote class="quoteContainer"><div class="quote"><b><span style="font-size: 15px"><span style="font-family: 'Arial'">Description</span></span></b><br>
Hoping to ease the pain in their hearts, teens Mia and Kyle travel to Spain in search of Mia's birth mother — and find themselves falling for each other.</div><div class="quoteExpand">Click to expand...</div></blockquote>
</aside>
</div>
<div class="bbCodeBlock bbCodeQuote">
<aside>
<blockquote class="quoteContainer"><div class="quote"><span style="font-family: 'Arial'"><span style="font-size: 15px"><b>General Information</b></span></span><br>
<b>Cast:</b> Virginia Gardner, Alex Aiono, Rob Estes, more<br>
<b>Genres:</b> Drama Films, Romantic Films, Films Based on Books<br>
<b>The film is:</b> Sentimental, Witty, Bittersweet</div><div class="quoteExpand">Click to expand...</div></blockquote>
</aside>
</div>
<div class="bbCodeBlock bbCodeQuote">
<aside>
<blockquote class="quoteContainer"><div class="quote"><b><span style="font-size: 15px">About</span> <span style="font-size: 18px">See You on Venus</span></b><br>
<b>Director:</b> Joaquín Llamas<br>
<b>Cast:</b> Virginia Gardner, Alex Aiono, Rob Estes, Veronica del Cerro, Alex Astort, Marjorie E. Glantz<br>
<b>Writer:</b> Victoria Vinuesa<br>
<b>Genres:</b> Drama Films, Romantic Films, Films Based on Books, Teen Films, US Movies<br>
<b>This film is:</b> Sentimental, Witty, Bittersweet<br>
<b>Maturity rating:</b> TV-PG Recommended for ages 13 and up</div><div class="quoteExpand">Click to expand...</div></blockquote>
</aside>
</div>
<div class="bbCodeBlock bbCodeQuote">
<aside>
<blockquote class="quoteContainer"><div class="quote"><b><span style="font-size: 15px">Trailers</span></b><br>
<span data-s9e-mediaembed="googledrive" style="display:inline-block;width:100%;max-width:640px"><span style="display:block;overflow:hidden;position:relative;padding-bottom:75%"><iframe allowfullscreen="" loading="lazy" scrolling="no" src="//drive.google.com/file/d/157q2J9eKGUuZH9_ze1Bqrsm_4pBB9k46/preview" style="border:0;height:100%;left:0;position:absolute;width:100%"></iframe></span></span></div><div class="quoteExpand quoteCut">Click to expand...</div></blockquote>
</aside>
</div>
<div class="bbCodeBlock bbCodeQuote">
<aside>
<blockquote class="quoteContainer"><div class="quote"><b><span style="font-size: 15px">Source</span></b><br>
<img src="https://i.imgur.com/rmTdFr3.png" class="bbCodeImage LbImage" alt="[​IMG]" data-url="https://i.imgur.com/rmTdFr3.png" style=""></div><div class="quoteExpand">Click to expand...</div></blockquote>
</aside>
</div>
<div class="bbCodeBlock bbCodeQuote">
<aside>
<blockquote class="quoteContainer"><div class="quote"><b><span style="font-size: 15px">Release Name</span></b><br>
See.You.on.Venus.2023.1080p.NF.WEB-DL.DDP5.1.x264-Samuel</div><div class="quoteExpand">Click to expand...</div></blockquote>
</aside>
</div>
<div class="ToggleTriggerAnchor bbCodeSpoilerContainer">
<button type="button" class="button bbCodeSpoilerButton ToggleTrigger Tooltip JsOnly" data-target="> .SpoilerTarget"><span>Spoiler: <span class="SpoilerTitle">Media Information</span></span></button>
<div class="SpoilerTarget bbCodeSpoilerText">General<br>
Complete name : See.You.on.Venus.2023.1080p.NF.WEB-DL.DDP5.1.x264-Samuel.mkv<br>
Format : Matroska<br>
Format version : Version 4<br>
File size : 8.40 GiB<br>
Duration : 1 h 35 min<br>
Overall bit rate mode : Variable<br>
Overall bit rate : 12.6 Mb/s<br>
Frame rate : 23.976 FPS<br>
Encoded date : 2023-11-17 00:26:46 UTC<br>
Writing application : mkvmerge v72.0.0 ('Minuano (Six-eight)') 64-bit<br>
Writing library : libebml v1.4.4 + libmatroska v1.7.1<br>
<br>
Video<br>
ID : 1<br>
Format : AVC<br>
Format/Info : Advanced Video Codec<br>
Format profile : Main@L4<br>
Format settings : CABAC / 3 Ref Frames<br>
Format settings, CABAC : Yes<br>
Format settings, Reference frames : 3 frames<br>
Codec ID : V_MPEG4/ISO/AVC<br>
Duration : 1 h 35 min<br>
Bit rate mode : Variable<br>
Bit rate : 5 000 kb/s<br>
Maximum bit rate : 7 500 kb/s<br>
Width : 1 920 pixels<br>
Height : 1 080 pixels<br>
Display aspect ratio : 16:9<br>
Frame rate mode : Constant<br>
Frame rate : 23.976 (24000/1001) FPS<br>
Color space : YUV<br>
Chroma subsampling : 4:2:0<br>
Bit depth : 8 bits<br>
Scan type : Progressive<br>
Bits/(Pixel*Frame) : 0.101<br>
Stream size : 3.29 GiB (39%)<br>
Writing library : x264 core 148 r2727 7d026e8<br>
Encoding settings : cabac=1 / ref=3 / deblock=1:0:0 / analyse=0x1:0x111 / me=umh / subme=10 / psy=1 / psy_rd=1.00:0.00 / mixed_ref=1 / me_range=24 / chroma_me=1 / trellis=2 / 8x8dct=0 / cqm=0 / deadzone=21,11 / fast_pskip=1 / chroma_qp_offset=-2 / threads=6 / lookahead_threads=1 / sliced_threads=0 / nr=0 / decimate=1 / interlaced=0 / bluray_compat=0 / stitchable=1 / constrained_intra=0 / bframes=2 / b_pyramid=0 / b_adapt=2 / b_bias=0 / direct=3 / weightb=1 / open_gop=0 / weightp=2 / keyint=240 / keyint_min=121 / scenecut=0 / intra_refresh=0 / rc_lookahead=48 / rc=2pass / mbtree=1 / bitrate=5000 / ratetol=1.0 / qcomp=0.50 / qpmin=6 / qpmax=51 / qpstep=4 / cplxblur=20.0 / qblur=0.5 / vbv_maxrate=7500 / vbv_bufsize=10000 / nal_hrd=vbr / filler=0 / ip_ratio=1.40 / aq=1:1.00<br>
Default : Yes<br>
Forced : No<br>
<br>
Audio #1<br>
ID : 2<br>
Format : E-AC-3<br>
Format/Info : Enhanced AC-3<br>
Commercial name : Dolby Digital Plus<br>
Codec ID : A_EAC3<br>
Duration : 1 h 35 min<br>
Bit rate mode : Constant<br>
Bit rate : 640 kb/s<br>
Channel(s) : 6 channels<br>
Channel layout : L R C LFE Ls Rs<br>
Sampling rate : 48.0 kHz<br>
Frame rate : 31.250 FPS (1536 SPF)<br>
Compression mode : Lossy<br>
Stream size : 436 MiB (5%)<br>
Language : Czech<br>
Service kind : Complete Main<br>
Default : Yes<br>
Forced : No<br>
<br>
Audio #2<br>
ID : 3<br>
Format : E-AC-3<br>
Format/Info : Enhanced AC-3<br>
Commercial name : Dolby Digital Plus<br>
Codec ID : A_EAC3<br>
Duration : 1 h 35 min<br>
Bit rate mode : Constant<br>
Bit rate : 640 kb/s<br>
Channel(s) : 6 channels<br>
Channel layout : L R C LFE Ls Rs<br>
Sampling rate : 48.0 kHz<br>
Frame rate : 31.250 FPS (1536 SPF)<br>
Compression mode : Lossy<br>
Stream size : 436 MiB (5%)<br>
Language : German<br>
Service kind : Complete Main<br>
Default : No<br>
Forced : No<br>
<br>
Audio #3<br>
ID : 4<br>
Format : E-AC-3<br>
Format/Info : Enhanced AC-3<br>
Commercial name : Dolby Digital Plus<br>
Codec ID : A_EAC3<br>
Duration : 1 h 35 min<br>
Bit rate mode : Constant<br>
Bit rate : 640 kb/s<br>
Channel(s) : 6 channels<br>
Channel layout : L R C LFE Ls Rs<br>
Sampling rate : 48.0 kHz<br>
Frame rate : 31.250 FPS (1536 SPF)<br>
Compression mode : Lossy<br>
Stream size : 436 MiB (5%)<br>
Language : English<br>
Service kind : Complete Main<br>
Default : No<br>
Forced : No<br>
<br>
Audio #4<br>
ID : 5<br>
Format : E-AC-3<br>
Format/Info : Enhanced AC-3<br>
Commercial name : Dolby Digital Plus<br>
Codec ID : A_EAC3<br>
Duration : 1 h 35 min<br>
Bit rate mode : Constant<br>
Bit rate : 640 kb/s<br>
Channel(s) : 6 channels<br>
Channel layout : L R C LFE Ls Rs<br>
Sampling rate : 48.0 kHz<br>
Frame rate : 31.250 FPS (1536 SPF)<br>
Compression mode : Lossy<br>
Stream size : 436 MiB (5%)<br>
Title : Latin American<br>
Language : Spanish<br>
Service kind : Complete Main<br>
Default : No<br>
Forced : No<br>
<br>
Audio #5<br>
ID : 6<br>
Format : E-AC-3<br>
Format/Info : Enhanced AC-3<br>
Commercial name : Dolby Digital Plus<br>
Codec ID : A_EAC3<br>
Duration : 1 h 35 min<br>
Bit rate mode : Constant<br>
Bit rate : 640 kb/s<br>
Channel(s) : 6 channels<br>
Channel layout : L R C LFE Ls Rs<br>
Sampling rate : 48.0 kHz<br>
Frame rate : 31.250 FPS (1536 SPF)<br>
Compression mode : Lossy<br>
Stream size : 436 MiB (5%)<br>
Title : European<br>
Language : Spanish<br>
Service kind : Complete Main<br>
Default : No<br>
Forced : No<br>
<br>
Audio #6<br>
ID : 7<br>
Format : E-AC-3<br>
Format/Info : Enhanced AC-3<br>
Commercial name : Dolby Digital Plus<br>
Codec ID : A_EAC3<br>
Duration : 1 h 35 min<br>
Bit rate mode : Constant<br>
Bit rate : 640 kb/s<br>
Channel(s) : 6 channels<br>
Channel layout : L R C LFE Ls Rs<br>
Sampling rate : 48.0 kHz<br>
Frame rate : 31.250 FPS (1536 SPF)<br>
Compression mode : Lossy<br>
Stream size : 436 MiB (5%)<br>
Language : French<br>
Service kind : Complete Main<br>
Default : No<br>
Forced : No<br>
<br>
Audio #7<br>
ID : 8<br>
Format : E-AC-3<br>
Format/Info : Enhanced AC-3<br>
Commercial name : Dolby Digital Plus<br>
Codec ID : A_EAC3<br>
Duration : 1 h 35 min<br>
Bit rate mode : Constant<br>
Bit rate : 640 kb/s<br>
Channel(s) : 6 channels<br>
Channel layout : L R C LFE Ls Rs<br>
Sampling rate : 48.0 kHz<br>
Frame rate : 31.250 FPS (1536 SPF)<br>
Compression mode : Lossy<br>
Stream size : 436 MiB (5%)<br>
Language : Hindi<br>
Service kind : Complete Main<br>
Default : No<br>
Forced : No<br>
<br>
Audio #8<br>
ID : 9<br>
Format : E-AC-3<br>
Format/Info : Enhanced AC-3<br>
Commercial name : Dolby Digital Plus<br>
Codec ID : A_EAC3<br>
Duration : 1 h 35 min<br>
Bit rate mode : Constant<br>
Bit rate : 640 kb/s<br>
Channel(s) : 6 channels<br>
Channel layout : L R C LFE Ls Rs<br>
Sampling rate : 48.0 kHz<br>
Frame rate : 31.250 FPS (1536 SPF)<br>
Compression mode : Lossy<br>
Stream size : 436 MiB (5%)<br>
Language : Italian<br>
Service kind : Complete Main<br>
Default : No<br>
Forced : No<br>
<br>
Audio #9<br>
ID : 10<br>
Format : E-AC-3<br>
Format/Info : Enhanced AC-3<br>
Commercial name : Dolby Digital Plus<br>
Codec ID : A_EAC3<br>
Duration : 1 h 35 min<br>
Bit rate mode : Constant<br>
Bit rate : 640 kb/s<br>
Channel(s) : 6 channels<br>
Channel layout : L R C LFE Ls Rs<br>
Sampling rate : 48.0 kHz<br>
Frame rate : 31.250 FPS (1536 SPF)<br>
Compression mode : Lossy<br>
Stream size : 436 MiB (5%)<br>
Language : Japanese<br>
Service kind : Complete Main<br>
Default : No<br>
Forced : No<br>
<br>
Audio #10<br>
ID : 11<br>
Format : E-AC-3<br>
Format/Info : Enhanced AC-3<br>
Commercial name : Dolby Digital Plus<br>
Codec ID : A_EAC3<br>
Duration : 1 h 35 min<br>
Bit rate mode : Constant<br>
Bit rate : 640 kb/s<br>
Channel(s) : 6 channels<br>
Channel layout : L R C LFE Ls Rs<br>
Sampling rate : 48.0 kHz<br>
Frame rate : 31.250 FPS (1536 SPF)<br>
Compression mode : Lossy<br>
Stream size : 436 MiB (5%)<br>
Language : Polish<br>
Service kind : Complete Main<br>
Default : No<br>
Forced : No<br>
<br>
Audio #11<br>
ID : 12<br>
Format : E-AC-3<br>
Format/Info : Enhanced AC-3<br>
Commercial name : Dolby Digital Plus<br>
Codec ID : A_EAC3<br>
Duration : 1 h 35 min<br>
Bit rate mode : Constant<br>
Bit rate : 640 kb/s<br>
Channel(s) : 6 channels<br>
Channel layout : L R C LFE Ls Rs<br>
Sampling rate : 48.0 kHz<br>
Frame rate : 31.250 FPS (1536 SPF)<br>
Compression mode : Lossy<br>
Stream size : 436 MiB (5%)<br>
Title : Brazilian<br>
Language : Portuguese<br>
Service kind : Complete Main<br>
Default : No<br>
Forced : No<br>
<br>
Audio #12<br>
ID : 13<br>
Format : E-AC-3<br>
Format/Info : Enhanced AC-3<br>
Commercial name : Dolby Digital Plus<br>
Codec ID : A_EAC3<br>
Duration : 1 h 35 min<br>
Bit rate mode : Constant<br>
Bit rate : 640 kb/s<br>
Channel(s) : 6 channels<br>
Channel layout : L R C LFE Ls Rs<br>
Sampling rate : 48.0 kHz<br>
Frame rate : 31.250 FPS (1536 SPF)<br>
Compression mode : Lossy<br>
Stream size : 436 MiB (5%)<br>
Title : Descriptive<br>
Language : English<br>
Service kind : Complete Main<br>
Default : No<br>
Forced : No<br>
<br>
Text #1<br>
ID : 14<br>
Format : UTF-8<br>
Codec ID : S_TEXT/UTF8<br>
Codec ID/Info : UTF-8 Plain Text<br>
Duration : 1 h 33 min<br>
Bit rate : 57 b/s<br>
Frame rate : 0.235 FPS<br>
Count of elements : 1320<br>
Stream size : 39.3 KiB (0%)<br>
Title : SDH<br>
Language : English<br>
Default : No<br>
Forced : No<br>
<br>
Text #2<br>
ID : 15<br>
Format : UTF-8<br>
Codec ID : S_TEXT/UTF8<br>
Codec ID/Info : UTF-8 Plain Text<br>
Duration : 1 h 33 min<br>
Bit rate : 72 b/s<br>
Frame rate : 0.181 FPS<br>
Count of elements : 1012<br>
Stream size : 49.7 KiB (0%)<br>
Language : Arabic<br>
Default : No<br>
Forced : No<br>
<br>
Text #3<br>
ID : 16<br>
Format : UTF-8<br>
Codec ID : S_TEXT/UTF8<br>
Codec ID/Info : UTF-8 Plain Text<br>
Duration : 1 h 32 min<br>
Bit rate : 38 b/s<br>
Frame rate : 0.174 FPS<br>
Count of elements : 961<br>
Stream size : 26.1 KiB (0%)<br>
Language : Czech<br>
Default : No<br>
Forced : No<br>
<br>
Text #4<br>
ID : 17<br>
Format : UTF-8<br>
Codec ID : S_TEXT/UTF8<br>
Codec ID/Info : UTF-8 Plain Text<br>
Duration : 1 h 32 min<br>
Bit rate : 38 b/s<br>
Frame rate : 0.170 FPS<br>
Count of elements : 942<br>
Stream size : 25.8 KiB (0%)<br>
Language : Danish<br>
Default : No<br>
Forced : No<br>
<br>
Text #5<br>
ID : 18<br>
Format : UTF-8<br>
Codec ID : S_TEXT/UTF8<br>
Codec ID/Info : UTF-8 Plain Text<br>
Duration : 1 h 32 min<br>
Bit rate : 41 b/s<br>
Frame rate : 0.162 FPS<br>
Count of elements : 896<br>
Stream size : 27.9 KiB (0%)<br>
Language : German<br>
Default : No<br>
Forced : No<br>
<br>
Text #6<br>
ID : 19<br>
Format : UTF-8<br>
Codec ID : S_TEXT/UTF8<br>
Codec ID/Info : UTF-8 Plain Text<br>
Duration : 1 h 28 min<br>
Bit rate : 56 b/s<br>
Frame rate : 0.145 FPS<br>
Count of elements : 769<br>
Stream size : 36.2 KiB (0%)<br>
Language : German<br>
Default : No<br>
Forced : No<br>
<br>
Text #7<br>
ID : 20<br>
Format : UTF-8<br>
Codec ID : S_TEXT/UTF8<br>
Codec ID/Info : UTF-8 Plain Text<br>
Duration : 1 h 32 min<br>
Bit rate : 68 b/s<br>
Frame rate : 0.176 FPS<br>
Count of elements : 973<br>
Stream size : 46.2 KiB (0%)<br>
Language : Greek<br>
Default : No<br>
Forced : No<br>
<br>
Text #8<br>
ID : 21<br>
Format : UTF-8<br>
Codec ID : S_TEXT/UTF8<br>
Codec ID/Info : UTF-8 Plain Text<br>
Duration : 1 h 32 min<br>
Bit rate : 39 b/s<br>
Frame rate : 0.174 FPS<br>
Count of elements : 960<br>
Stream size : 26.5 KiB (0%)<br>
Title : Latin American<br>
Language : Spanish<br>
Default : No<br>
Forced : No<br>
<br>
Text #9<br>
ID : 22<br>
Format : UTF-8<br>
Codec ID : S_TEXT/UTF8<br>
Codec ID/Info : UTF-8 Plain Text<br>
Duration : 1 h 32 min<br>
Bit rate : 39 b/s<br>
Frame rate : 0.174 FPS<br>
Count of elements : 962<br>
Stream size : 26.9 KiB (0%)<br>
Title : European<br>
Language : Spanish<br>
Default : No<br>
Forced : No<br>
<br>
Text #10<br>
ID : 23<br>
Format : UTF-8<br>
Codec ID : S_TEXT/UTF8<br>
Codec ID/Info : UTF-8 Plain Text<br>
Duration : 1 h 29 min<br>
Bit rate : 46 b/s<br>
Frame rate : 0.146 FPS<br>
Count of elements : 782<br>
Stream size : 30.3 KiB (0%)<br>
Title : European<br>
Language : Spanish<br>
Default : No<br>
Forced : No<br>
<br>
Text #11<br>
ID : 24<br>
Format : UTF-8<br>
Codec ID : S_TEXT/UTF8<br>
Codec ID/Info : UTF-8 Plain Text<br>
Duration : 1 h 32 min<br>
Bit rate : 40 b/s<br>
Frame rate : 0.152 FPS<br>
Count of elements : 841<br>
Stream size : 27.2 KiB (0%)<br>
Language : Finnish<br>
Default : No<br>
Forced : No<br>
<br>
Text #12<br>
ID : 25<br>
Format : UTF-8<br>
Codec ID : S_TEXT/UTF8<br>
Codec ID/Info : UTF-8 Plain Text<br>
Duration : 1 h 32 min<br>
Bit rate : 40 b/s<br>
Frame rate : 0.163 FPS<br>
Count of elements : 902<br>
Stream size : 27.5 KiB (0%)<br>
Language : Filipino<br>
Default : No<br>
Forced : No<br>
<br>
Text #13<br>
ID : 26<br>
Format : UTF-8<br>
Codec ID : S_TEXT/UTF8<br>
Codec ID/Info : UTF-8 Plain Text<br>
Duration : 1 h 31 min<br>
Bit rate : 37 b/s<br>
Frame rate : 0.166 FPS<br>
Count of elements : 911<br>
Stream size : 24.8 KiB (0%)<br>
Language : French<br>
Default : No<br>
Forced : No<br>
<br>
Text #14<br>
ID : 27<br>
Format : UTF-8<br>
Codec ID : S_TEXT/UTF8<br>
Codec ID/Info : UTF-8 Plain Text<br>
Duration : 1 h 32 min<br>
Bit rate : 70 b/s<br>
Frame rate : 0.173 FPS<br>
Count of elements : 956<br>
Stream size : 47.4 KiB (0%)<br>
Language : Hebrew<br>
Default : No<br>
Forced : No<br>
<br>
Text #15<br>
ID : 28<br>
Format : UTF-8<br>
Codec ID : S_TEXT/UTF8<br>
Codec ID/Info : UTF-8 Plain Text<br>
Duration : 1 h 33 min<br>
Bit rate : 38 b/s<br>
Frame rate : 0.171 FPS<br>
Count of elements : 958<br>
Stream size : 26.1 KiB (0%)<br>
Language : Croatian<br>
Default : No<br>
Forced : No<br>
<br>
Text #16<br>
ID : 29<br>
Format : UTF-8<br>
Codec ID : S_TEXT/UTF8<br>
Codec ID/Info : UTF-8 Plain Text<br>
Duration : 1 h 32 min<br>
Bit rate : 41 b/s<br>
Frame rate : 0.172 FPS<br>
Count of elements : 949<br>
Stream size : 27.7 KiB (0%)<br>
Language : Hungarian<br>
Default : No<br>
Forced : No<br>
<br>
Text #17<br>
ID : 30<br>
Format : UTF-8<br>
Codec ID : S_TEXT/UTF8<br>
Codec ID/Info : UTF-8 Plain Text<br>
Duration : 1 h 32 min<br>
Bit rate : 38 b/s<br>
Frame rate : 0.171 FPS<br>
Count of elements : 943<br>
Stream size : 25.7 KiB (0%)<br>
Language : Indonesian<br>
Default : No<br>
Forced : No<br>
<br>
Text #18<br>
ID : 31<br>
Format : UTF-8<br>
Codec ID : S_TEXT/UTF8<br>
Codec ID/Info : UTF-8 Plain Text<br>
Duration : 1 h 28 min<br>
Bit rate : 49 b/s<br>
Frame rate : 0.135 FPS<br>
Count of elements : 714<br>
Stream size : 32.2 KiB (0%)<br>
Language : Italian<br>
Default : No<br>
Forced : No<br>
<br>
Text #19<br>
ID : 32<br>
Format : UTF-8<br>
Codec ID : S_TEXT/UTF8<br>
Codec ID/Info : UTF-8 Plain Text<br>
Duration : 1 h 33 min<br>
Bit rate : 38 b/s<br>
Frame rate : 0.171 FPS<br>
Count of elements : 959<br>
Stream size : 26.2 KiB (0%)<br>
Language : Italian<br>
Default : No<br>
Forced : No<br>
<br>
Text #20<br>
ID : 33<br>
Format : UTF-8<br>
Codec ID : S_TEXT/UTF8<br>
Codec ID/Info : UTF-8 Plain Text<br>
Duration : 1 h 32 min<br>
Bit rate : 40 b/s<br>
Frame rate : 0.178 FPS<br>
Count of elements : 984<br>
Stream size : 27.0 KiB (0%)<br>
Language : Japanese<br>
Default : No<br>
Forced : No<br>
<br>
Text #21<br>
ID : 34<br>
Format : UTF-8<br>
Codec ID : S_TEXT/UTF8<br>
Codec ID/Info : UTF-8 Plain Text<br>
Duration : 1 h 32 min<br>
Bit rate : 45 b/s<br>
Frame rate : 0.184 FPS<br>
Count of elements : 1017<br>
Stream size : 30.9 KiB (0%)<br>
Language : Korean<br>
Default : No<br>
Forced : No<br>
<br>
Text #22<br>
ID : 35<br>
Format : UTF-8<br>
Codec ID : S_TEXT/UTF8<br>
Codec ID/Info : UTF-8 Plain Text<br>
Duration : 1 h 32 min<br>
Bit rate : 44 b/s<br>
Frame rate : 0.176 FPS<br>
Count of elements : 975<br>
Stream size : 29.8 KiB (0%)<br>
Language : Malay<br>
Default : No<br>
Forced : No<br>
<br>
Text #23<br>
ID : 36<br>
Format : UTF-8<br>
Codec ID : S_TEXT/UTF8<br>
Codec ID/Info : UTF-8 Plain Text<br>
Duration : 1 h 32 min<br>
Bit rate : 38 b/s<br>
Frame rate : 0.171 FPS<br>
Count of elements : 944<br>
Stream size : 26.3 KiB (0%)<br>
Language : Norwegian Bokmal<br>
Default : No<br>
Forced : No<br>
<br>
Text #24<br>
ID : 37<br>
Format : UTF-8<br>
Codec ID : S_TEXT/UTF8<br>
Codec ID/Info : UTF-8 Plain Text<br>
Duration : 1 h 32 min<br>
Bit rate : 40 b/s<br>
Frame rate : 0.162 FPS<br>
Count of elements : 895<br>
Stream size : 27.2 KiB (0%)<br>
Language : Dutch<br>
Default : No<br>
Forced : No<br>
<br>
Text #25<br>
ID : 38<br>
Format : UTF-8<br>
Codec ID : S_TEXT/UTF8<br>
Codec ID/Info : UTF-8 Plain Text<br>
Duration : 1 h 32 min<br>
Bit rate : 38 b/s<br>
Frame rate : 0.166 FPS<br>
Count of elements : 917<br>
Stream size : 26.1 KiB (0%)<br>
Language : Polish<br>
Default : No<br>
Forced : No<br>
<br>
Text #26<br>
ID : 39<br>
Format : UTF-8<br>
Codec ID : S_TEXT/UTF8<br>
Codec ID/Info : UTF-8 Plain Text<br>
Duration : 1 h 32 min<br>
Bit rate : 39 b/s<br>
Frame rate : 0.176 FPS<br>
Count of elements : 971<br>
Stream size : 26.8 KiB (0%)<br>
Title : Brazilian<br>
Language : Portuguese<br>
Default : No<br>
Forced : No<br>
<br>
Text #27<br>
ID : 40<br>
Format : UTF-8<br>
Codec ID : S_TEXT/UTF8<br>
Codec ID/Info : UTF-8 Plain Text<br>
Duration : 1 h 27 min<br>
Bit rate : 50 b/s<br>
Frame rate : 0.148 FPS<br>
Count of elements : 778<br>
Stream size : 32.4 KiB (0%)<br>
Title : Brazilian<br>
Language : Portuguese<br>
Default : No<br>
Forced : No<br>
<br>
Text #28<br>
ID : 41<br>
Format : UTF-8<br>
Codec ID : S_TEXT/UTF8<br>
Codec ID/Info : UTF-8 Plain Text<br>
Duration : 1 h 33 min<br>
Bit rate : 38 b/s<br>
Frame rate : 0.173 FPS<br>
Count of elements : 969<br>
Stream size : 26.4 KiB (0%)<br>
Title : European<br>
Language : Portuguese<br>
Default : No<br>
Forced : No<br>
<br>
Text #29<br>
ID : 42<br>
Format : UTF-8<br>
Codec ID : S_TEXT/UTF8<br>
Codec ID/Info : UTF-8 Plain Text<br>
Duration : 1 h 33 min<br>
Bit rate : 41 b/s<br>
Frame rate : 0.168 FPS<br>
Count of elements : 943<br>
Stream size : 28.1 KiB (0%)<br>
Language : Romanian<br>
Default : No<br>
Forced : No<br>
<br>
Text #30<br>
ID : 43<br>
Format : UTF-8<br>
Codec ID : S_TEXT/UTF8<br>
Codec ID/Info : UTF-8 Plain Text<br>
Duration : 1 h 32 min<br>
Bit rate : 66 b/s<br>
Frame rate : 0.177 FPS<br>
Count of elements : 978<br>
Stream size : 44.8 KiB (0%)<br>
Language : Russian<br>
Default : No<br>
Forced : No<br>
<br>
Text #31<br>
ID : 44<br>
Format : UTF-8<br>
Codec ID : S_TEXT/UTF8<br>
Codec ID/Info : UTF-8 Plain Text<br>
Duration : 1 h 32 min<br>
Bit rate : 39 b/s<br>
Frame rate : 0.147 FPS<br>
Count of elements : 815<br>
Stream size : 26.9 KiB (0%)<br>
Language : Swedish<br>
Default : No<br>
Forced : No<br>
<br>
Text #32<br>
ID : 45<br>
Format : UTF-8<br>
Codec ID : S_TEXT/UTF8<br>
Codec ID/Info : UTF-8 Plain Text<br>
Duration : 1 h 32 min<br>
Bit rate : 104 b/s<br>
Frame rate : 0.178 FPS<br>
Count of elements : 982<br>
Stream size : 70.7 KiB (0%)<br>
Language : Thai<br>
Default : No<br>
Forced : No<br>
<br>
Text #33<br>
ID : 46<br>
Format : UTF-8<br>
Codec ID : S_TEXT/UTF8<br>
Codec ID/Info : UTF-8 Plain Text<br>
Duration : 1 h 32 min<br>
Bit rate : 41 b/s<br>
Frame rate : 0.156 FPS<br>
Count of elements : 862<br>
Stream size : 27.7 KiB (0%)<br>
Language : Turkish<br>
Default : No<br>
Forced : No<br>
<br>
Text #34<br>
ID : 47<br>
Format : UTF-8<br>
Codec ID : S_TEXT/UTF8<br>
Codec ID/Info : UTF-8 Plain Text<br>
Duration : 1 h 33 min<br>
Bit rate : 52 b/s<br>
Frame rate : 0.158 FPS<br>
Count of elements : 886<br>
Stream size : 36.1 KiB (0%)<br>
Language : Vietnamese<br>
Default : No<br>
Forced : No<br>
<br>
Text #35<br>
ID : 48<br>
Format : UTF-8<br>
Codec ID : S_TEXT/UTF8<br>
Codec ID/Info : UTF-8 Plain Text<br>
Duration : 1 h 32 min<br>
Bit rate : 38 b/s<br>
Frame rate : 0.178 FPS<br>
Count of elements : 982<br>
Stream size : 25.8 KiB (0%)<br>
Title : Simplified<br>
Language : Chinese<br>
Default : No<br>
Forced : No<br>
<br>
Text #36<br>
ID : 49<br>
Format : UTF-8<br>
Codec ID : S_TEXT/UTF8<br>
Codec ID/Info : UTF-8 Plain Text<br>
Duration : 1 h 32 min<br>
Bit rate : 38 b/s<br>
Frame rate : 0.178 FPS<br>
Count of elements : 986<br>
Stream size : 26.3 KiB (0%)<br>
Title : Traditional<br>
Language : Chinese<br>
Default : No<br>
Forced : No<br>
<br>
Menu<br>
00:00:00.000 : en<img src="styles/default/xenforo/smilies/grimace-48.png" class="mceSmilie" alt=":p" title="Stick Out Tongue    :p">art 01<br>
01:30:13.450 : en:Credits</div>
</div><br>
<b>Screenshots</b><br>
<img src="https://i.imgur.com/TgD15IO.png" class="bbCodeImage LbImage" alt="[​IMG]" data-url="https://i.imgur.com/TgD15IO.png" style=""><br>
<br>
<b>Download</b><br>
<div class="bbCodeBlock bbCodeVfcHH HiddenContent">
<div class="attribution type">Hidden Content:</div>
<blockquote>You must reply before you can see the hidden data contained here.</blockquote>
</div></div>
<div class="messageTextEndMarker">&nbsp;</div>
</blockquote>
</article>]]></description>
                <author><![CDATA[piqeros]]></author>
                </item>

                </channel></rss>